<svg width="35" height="34" viewBox="0 0 35 34" fill="none" xmlns="http://www.w3.org/2000/svg">
<path d="M17.5 0C8.38268 0 0.963867 7.41675 0.963867 16.5351C0.963867 25.6534 8.38268 33.0701 17.5 33.0701C26.6172 33.0701 34.0361 25.6534 34.0361 16.5351C34.0361 7.41675 26.6172 0 17.5 0ZM17.5 31.9688C8.99009 31.9688 2.0673 25.0449 2.0673 16.5351C2.0673 8.02519 8.99009 1.10138 17.5 1.10138C26.0098 1.10138 32.9326 8.02519 32.9326 16.5351C32.9326 25.0449 26.0098 31.9688 17.5 31.9688Z" fill="#FBFCCF"/>
<path d="M21.1095 7.25358H18.3581C14.8539 7.21852 14.4064 9.38724 14.4064 11.7344V13.4411H12.8595C12.7896 13.4317 12.7185 13.4386 12.6517 13.4613C12.5848 13.4839 12.5241 13.5216 12.4743 13.5715C12.4244 13.6213 12.3867 13.682 12.3641 13.7488C12.3414 13.8157 12.3345 13.8868 12.3439 13.9567V17.0505C12.3345 17.1204 12.3414 17.1915 12.3641 17.2583C12.3867 17.3251 12.4244 17.3858 12.4743 17.4357C12.5241 17.4856 12.5848 17.5233 12.6517 17.5459C12.7185 17.5685 12.7896 17.5754 12.8595 17.5661H14.4064V25.3005C14.398 25.3705 14.4057 25.4414 14.4288 25.508C14.452 25.5746 14.49 25.6351 14.54 25.6848C14.59 25.7345 14.6507 25.7721 14.7174 25.7949C14.7841 25.8176 14.8552 25.8249 14.9251 25.8161H18.0756C18.3798 25.8511 18.6263 25.6047 18.5293 25.3005L18.5314 17.5661H21.1095C21.1794 17.5754 21.2506 17.5685 21.3174 17.5459C21.3842 17.5233 21.4449 17.4856 21.4948 17.4357C21.5446 17.3858 21.5823 17.3251 21.605 17.2583C21.6276 17.1915 21.6345 17.1204 21.6251 17.0505V13.9567C21.6345 13.8868 21.6276 13.8157 21.605 13.7488C21.5823 13.682 21.5446 13.6213 21.4948 13.5715C21.4449 13.5216 21.3842 13.4839 21.3174 13.4613C21.2506 13.4386 21.1794 13.4317 21.1095 13.4411H18.5283L18.5314 11.8942C18.6314 11.2352 18.6314 11.3425 19.2429 11.3786H21.0879C21.2312 11.3466 21.3838 11.3641 21.4911 11.26C21.5983 11.1558 21.6602 11.0135 21.6241 10.863V7.76921C21.6336 7.69935 21.6269 7.62823 21.6044 7.56141C21.5819 7.49458 21.5443 7.43385 21.4945 7.38394C21.4447 7.33404 21.384 7.29631 21.3173 7.2737C21.2505 7.25109 21.1794 7.2442 21.1095 7.25358ZM20.5578 10.2896L19.2646 10.2401C17.6631 10.2401 17.529 11.1094 17.529 11.9994L17.5249 13.9546C17.5247 14.027 17.5389 14.0988 17.5665 14.1657C17.5941 14.2326 17.6347 14.2935 17.6858 14.3447C17.737 14.396 17.7977 14.4366 17.8646 14.4643C17.9315 14.4921 18.0032 14.5064 18.0756 14.5064H20.5939V16.4987H18.0776C17.9315 16.4987 17.7913 16.5567 17.6879 16.66C17.5844 16.7632 17.5262 16.9033 17.5259 17.0494L17.5249 24.7848H15.4376V17.0505C15.4376 16.7462 15.2304 16.4998 14.9251 16.4998H13.3751V14.5074H14.9251C14.9975 14.5077 15.0692 14.4937 15.1361 14.4661C15.2031 14.4384 15.2638 14.3978 15.3149 14.3465C15.418 14.2424 15.4366 14.1021 15.4366 13.9557V11.7333C15.4366 9.42127 15.9038 8.31989 18.3571 8.31989H20.5568L20.5578 10.2896Z" fill="#FBFCCF"/>
</svg>
