<svg width="33" height="33" viewBox="0 0 33 33" fill="none" xmlns="http://www.w3.org/2000/svg">
<path d="M16.9639 9.31947C15.5367 9.31947 14.1417 9.74266 12.955 10.5355C11.7684 11.3284 10.8436 12.4553 10.2974 13.7738C9.7513 15.0923 9.60841 16.5432 9.88683 17.9429C10.1652 19.3426 10.8525 20.6283 11.8616 21.6374C12.8707 22.6466 14.1565 23.3338 15.5562 23.6122C16.9559 23.8906 18.4067 23.7477 19.7252 23.2016C21.0437 22.6554 22.1706 21.7306 22.9635 20.544C23.7564 19.3574 24.1796 17.9623 24.1796 16.5352C24.1771 14.6222 23.416 12.7883 22.0634 11.4356C20.7107 10.083 18.8768 9.32196 16.9639 9.31947ZM16.9639 21.8685C15.909 21.8685 14.8779 21.5557 14.0008 20.9697C13.1238 20.3836 12.4402 19.5507 12.0365 18.5761C11.6328 17.6016 11.5272 16.5292 11.733 15.4947C11.9388 14.4601 12.4468 13.5098 13.1926 12.7639C13.9385 12.018 14.8888 11.5101 15.9234 11.3043C16.958 11.0985 18.0303 11.2041 19.0048 11.6078C19.9794 12.0115 20.8123 12.6951 21.3984 13.5721C21.9844 14.4492 22.2972 15.4803 22.2972 16.5352C22.2972 17.9496 21.7353 19.3062 20.7351 20.3064C19.7349 21.3066 18.3784 21.8685 16.9639 21.8685ZM24.4933 0.535156H9.43446C7.18868 0.537647 5.0356 1.43088 3.4476 3.01889C1.85959 4.60689 0.966358 6.75997 0.963867 9.00574V24.0646C0.966358 26.3103 1.85959 28.4634 3.4476 30.0514C5.0356 31.6394 7.18868 32.5327 9.43446 32.5352H24.4933C26.7391 32.5327 28.8921 31.6394 30.4801 30.0514C32.0681 28.4634 32.9614 26.3103 32.9639 24.0646V9.00574C32.9614 6.75997 32.0681 4.60689 30.4801 3.01889C28.8921 1.43088 26.7391 0.537647 24.4933 0.535156ZM31.0815 24.0646C31.0815 25.8119 30.3874 27.4876 29.1519 28.7232C27.9163 29.9587 26.2406 30.6528 24.4933 30.6528H9.43446C7.68715 30.6528 6.0114 29.9587 4.77587 28.7232C3.54034 27.4876 2.84622 25.8119 2.84622 24.0646V9.00574C2.84622 7.25844 3.54034 5.58269 4.77587 4.34716C6.0114 3.11162 7.68715 2.41751 9.43446 2.41751H24.4933C26.2406 2.41751 27.9163 3.11162 29.1519 4.34716C30.3874 5.58269 31.0815 7.25844 31.0815 9.00574V24.0646ZM26.6894 8.37829C26.6894 8.68854 26.5974 8.99182 26.425 9.24978C26.2526 9.50774 26.0076 9.70879 25.721 9.82752C25.4344 9.94624 25.119 9.97731 24.8147 9.91678C24.5104 9.85625 24.2309 9.70686 24.0115 9.48748C23.7922 9.2681 23.6428 8.9886 23.5822 8.68432C23.5217 8.38003 23.5528 8.06463 23.6715 7.77801C23.7902 7.49138 23.9913 7.24639 24.2492 7.07403C24.5072 6.90166 24.8105 6.80967 25.1207 6.80967C25.5368 6.80967 25.9357 6.97493 26.2299 7.26911C26.5241 7.56328 26.6894 7.96227 26.6894 8.37829Z" fill="#FBFCCF"/>
</svg>
