<svg width="35" height="34" viewBox="0 0 35 34" fill="none" xmlns="http://www.w3.org/2000/svg">
<path d="M21.1248 12.4309C20.4256 12.4309 19.9079 12.6072 19.5026 12.83C19.4376 12.599 19.2242 12.4298 18.9725 12.4804H15.8953C15.5911 12.4298 15.3446 12.6763 15.4384 12.996V24.3398C15.3446 24.6285 15.5911 24.876 15.8953 24.8554H18.9725C19.2767 24.876 19.5232 24.6285 19.5232 24.3243L19.5222 17.4685C19.5212 17.4654 19.5098 17.1375 19.7171 16.9117C19.8831 16.7322 20.1688 16.6404 20.5638 16.6404C21.2217 16.6404 21.5146 16.9096 21.6239 17.5118V24.3243C21.5156 24.6285 21.7621 24.876 22.0663 24.8554H25.3096C25.6138 24.876 25.8602 24.6285 25.7509 24.3243V17.2829C25.8592 13.7024 23.3089 12.4309 21.1248 12.4309ZM24.7578 23.8241H22.617V17.5118C22.617 16.2939 21.8301 15.5391 20.5648 15.5391C19.8491 15.5391 19.2922 15.7494 18.9086 16.164C18.3754 16.7415 18.4167 17.4737 18.5312 17.6366V23.8241H16.446V13.5323H18.4218V13.8787C18.421 13.982 18.4494 14.0833 18.5036 14.1712C18.5578 14.259 18.6357 14.3298 18.7283 14.3753C18.8209 14.4209 18.9245 14.4394 19.0272 14.4287C19.1299 14.418 19.2275 14.3786 19.3087 14.315L19.4531 14.2036C19.8707 13.8746 20.3028 13.5333 21.1258 13.5333C21.9776 13.5333 24.7589 13.8045 24.7589 17.2839L24.7578 23.8241ZM12.3437 7.28906C11.1866 7.28906 10.2461 8.22956 10.2461 9.38662C10.2461 10.5437 11.1866 11.4842 12.3437 11.4842C13.5007 11.4842 14.4412 10.5437 14.4412 9.38662C14.4412 8.22956 13.5007 7.28906 12.3437 7.28906ZM12.3437 10.3828C11.795 10.3828 11.3475 9.93525 11.3475 9.38662C11.3475 8.838 11.795 8.39044 12.3437 8.39044C12.8923 8.39044 13.3398 8.838 13.3398 9.38662C13.3398 9.93525 12.8923 10.3828 12.3437 10.3828ZM13.8163 12.4298H10.7555C10.4513 12.4298 10.2048 12.6763 10.2812 12.996V24.3398C10.2048 24.6285 10.4513 24.876 10.7555 24.8554H13.8163C14.1205 24.876 14.367 24.6285 14.367 24.3243V12.9805C14.367 12.8345 14.309 12.6944 14.2057 12.5911C14.1024 12.4879 13.9623 12.4298 13.8163 12.4298ZM13.3749 23.8241H11.3062V13.5323H13.3749V23.8241Z" fill="#FBFCCF"/>
<path d="M17.4999 0.0703125C8.38159 0.0703125 0.964844 7.48706 0.964844 16.6054C0.964844 25.7237 8.38159 33.1404 17.4999 33.1404C26.6182 33.1404 34.035 25.7237 34.035 16.6054C34.035 7.48706 26.6182 0.0703125 17.4999 0.0703125ZM17.4999 32.0391C8.99003 32.0391 2.06622 25.1152 2.06622 16.6054C2.06622 8.0955 8.99003 1.17169 17.4999 1.17169C26.0098 1.17169 32.9336 8.0955 32.9336 16.6054C32.9336 25.1152 26.0098 32.0391 17.4999 32.0391Z" fill="#FBFCCF"/>
</svg>
